<svg width="21" height="18" viewBox="0 0 21 18" fill="none" xmlns="http://www.w3.org/2000/svg">
<path d="M18.9374 4.92639C18.9501 5.10405 18.9501 5.28174 18.9501 5.4594C18.9501 10.8781 14.8258 17.1218 7.2877 17.1218C4.96536 17.1218 2.80801 16.4492 0.993286 15.2817C1.32325 15.3198 1.64047 15.3325 1.98313 15.3325C3.89934 15.3325 5.66333 14.6853 7.07196 13.5812C5.26993 13.5431 3.75977 12.363 3.23946 10.7386C3.49329 10.7766 3.74708 10.802 4.0136 10.802C4.38161 10.802 4.74965 10.7512 5.09227 10.6624C3.21411 10.2817 1.80543 8.63198 1.80543 6.6396V6.58885C2.3511 6.89342 2.98567 7.08377 3.65821 7.10913C2.55415 6.37307 1.83083 5.11674 1.83083 3.69542C1.83083 2.93401 2.03383 2.23604 2.38918 1.6269C4.40696 4.1142 7.43997 5.73854 10.8409 5.91624C10.7775 5.61167 10.7394 5.29444 10.7394 4.97717C10.7394 2.71827 12.5668 0.878189 14.8384 0.878189C16.0186 0.878189 17.0846 1.37311 17.8333 2.1726C18.7597 1.99495 19.648 1.65229 20.4348 1.18276C20.1302 2.13456 19.4831 2.93405 18.6328 3.44163C19.4577 3.35284 20.2572 3.12436 20.9932 2.80713C20.4349 3.61928 19.7369 4.3426 18.9374 4.92639Z" fill="#18B5DC"/>
</svg>
