<svg width="21" height="20" viewBox="0 0 21 20" fill="none" xmlns="http://www.w3.org/2000/svg">
<path d="M10.9977 15.1277C8.15941 15.1277 5.87 12.8383 5.87 9.99998C5.87 7.16165 8.15941 4.87224 10.9977 4.87224C13.8361 4.87224 16.1255 7.16165 16.1255 9.99998C16.1255 12.8383 13.8361 15.1277 10.9977 15.1277ZM10.9977 6.66628C9.16354 6.66628 7.66404 8.16131 7.66404 9.99998C7.66404 11.8387 9.15908 13.3337 10.9977 13.3337C12.8364 13.3337 14.3315 11.8387 14.3315 9.99998C14.3315 8.16131 12.832 6.66628 10.9977 6.66628ZM17.5313 15.3375C17.5313 14.6725 16.9957 14.1415 16.3352 14.1415C15.6703 14.1415 15.1392 14.677 15.1392 15.3375C15.1392 15.998 15.6748 16.5335 16.3352 16.5335C16.9957 16.5335 17.5313 15.998 17.5313 15.3375ZM20.9275 14.1236C20.8516 15.7257 20.4856 17.1449 19.3119 18.3142C18.1427 19.4834 16.7235 19.8494 15.1214 19.9297C13.4701 20.0234 8.5209 20.0234 6.86967 19.9297C5.27199 19.8538 3.85282 19.4879 2.67911 18.3186C1.50539 17.1494 1.14391 15.7302 1.06358 14.1281C0.969856 12.4768 0.969856 7.5276 1.06358 5.87637C1.13944 4.27422 1.50539 2.85505 2.67911 1.6858C3.85282 0.516552 5.26752 0.150604 6.86967 0.0702744C8.5209 -0.0234451 13.4701 -0.0234451 15.1214 0.0702744C16.7235 0.146141 18.1427 0.512089 19.3119 1.6858C20.4812 2.85505 20.8471 4.27422 20.9275 5.87637C21.0212 7.5276 21.0212 12.4724 20.9275 14.1236ZM18.7942 4.10464C18.4461 3.22993 17.7723 2.55605 16.8931 2.20349C15.5766 1.68134 12.4526 1.80184 10.9977 1.80184C9.54288 1.80184 6.41446 1.6858 5.1024 2.20349C4.22769 2.55159 3.55381 3.22547 3.20125 4.10464C2.67911 5.42116 2.7996 8.54511 2.7996 9.99998C2.7996 11.4549 2.68357 14.5833 3.20125 15.8953C3.54935 16.77 4.22323 17.4439 5.1024 17.7965C6.41892 18.3186 9.54288 18.1981 10.9977 18.1981C12.4526 18.1981 15.581 18.3142 16.8931 17.7965C17.7678 17.4484 18.4417 16.7745 18.7942 15.8953C19.3164 14.5788 19.1959 11.4549 19.1959 9.99998C19.1959 8.54511 19.3164 5.4167 18.7942 4.10464Z" fill="#18B5DC"/>
</svg>
