<svg width="20" height="20" viewBox="0 0 20 20" fill="none" xmlns="http://www.w3.org/2000/svg">
<path d="M4.47664 20H0.33012V6.64702H4.47664V20ZM2.40115 4.82555C1.07523 4.82555 -0.000244141 3.72732 -0.000244141 2.40139C-0.000244131 1.7645 0.252759 1.1537 0.703108 0.703352C1.15346 0.253003 1.76426 0 2.40115 0C3.03804 0 3.64884 0.253003 4.09919 0.703352C4.54954 1.1537 4.80254 1.7645 4.80254 2.40139C4.80254 3.72732 3.72662 4.82555 2.40115 4.82555ZM19.9957 20H15.8581V13.4999C15.8581 11.9507 15.8269 9.96406 13.7023 9.96406C11.5464 9.96406 11.2161 11.6471 11.2161 13.3882V20H7.07402V6.64702H11.0509V8.46849H11.1089C11.6625 7.41936 13.0148 6.31219 15.0322 6.31219C19.2288 6.31219 20.0002 9.07565 20.0002 12.665V20H19.9957Z" fill="#18B5DC"/>
</svg>
